<svg id="Layer_2" data-name="Layer 2" xmlns="http://www.w3.org/2000/svg" viewBox="0 0 512 512"><path d="M381.36,331c-1.05-10.9-5.52-17.34-17.34-32.18s-49.59-36.39-53.86-39-12.22-4.4-13.86-4.92-1.25,2.89-1.71,4.53-3.48,6.63-9.26,9.52-13.27,2.63-16.49,1.52-5.12-6.18-4.92-8.74a57.18,57.18,0,0,1,1.51-10.64c1.05-3.94,3.94-3.81,5.12-4s1.12,1.78.85,3.35l-1.7,10.31c-.07,1,.39,2.43,8.27,2.57s9-4.27,9.33-4.8.52-4.86,0-9.79-4-8.08-9.92-11.56S256,232.86,256,232.86s-15.47.85-21.38,4.33-9.39,6.64-9.92,11.56-.33,9.27,0,9.79,1.45,4.93,9.33,4.8,8.34-1.58,8.27-2.57l-1.7-10.31c-.27-1.57-.33-3.55.85-3.35s4.07.07,5.12,4a57.18,57.18,0,0,1,1.51,10.64c.2,2.56-1.7,7.62-4.92,8.74s-10.71,1.38-16.49-1.52-8.8-7.88-9.26-9.52-.07-5.06-1.71-4.53-9.59,2.36-13.86,4.92-42,24.11-53.86,39S131.69,320.09,130.64,331s2.23,25.09,10.51,32.84,16.82,12.22,25.49,12.09,23-.39,36.91-9.85,33-22.6,40.07-32.19,5.65-10.51,6.3-14.45,2.57-8.8,6.08-9.59c3.51.79,5.42,5.65,6.08,9.59s-.79,4.86,6.3,14.45,26.14,22.73,40.07,32.19,28.24,9.72,36.91,9.85,17.21-4.34,25.49-12.09S382.41,341.9,381.36,331Z" fill="currentColor"/><path d="M252.12,415.44s27.52.33,50.92-2.57,43.8-13.11,43.8-13.11c12.33-6.21,14.43-15.42,15.22-18.57s-1.18-3.35-1.18-3.35-3.15,1.77-4.34,2.36S344.92,383,335.85,382s-11.43-3-25-8.28-34.49-22.27-41.78-29.36-11.43-7.29-11.43-7.29h-3.24s-4.14.2-11.43,7.29-28.18,24-41.78,29.36-16,7.29-25,8.28-19.51-1.18-20.69-1.78-4.34-2.36-4.34-2.36-2,.2-1.18,3.35,2.89,12.36,15.22,18.57c0,0,20.4,10.2,43.8,13.11s50.92,2.57,50.92,2.57" fill="currentColor"/><path d="M135.09,205.25a25.82,25.82,0,1,0,25.81,25.82A25.81,25.81,0,0,0,135.09,205.25Zm-7,29.76a10.51,10.51,0,1,1,10.5-10.51A10.51,10.51,0,0,1,128.1,235Zm18.58-2.15a5,5,0,1,1,5-5A5,5,0,0,1,146.68,232.86Z" fill="currentColor"/><path d="M376.91,205.25a25.82,25.82,0,1,0,25.81,25.82A25.81,25.81,0,0,0,376.91,205.25Zm-7,29.76a10.51,10.51,0,1,1,10.51-10.51A10.52,10.52,0,0,1,369.91,235Zm18.58-2.15a5,5,0,1,1,5-5A5,5,0,0,1,388.49,232.86Z" fill="currentColor"/><path d="M117.91,96.54s16.56.79,5.91,15-33.89,43.35-47.29,83.55S63.13,246.67,53.28,256s-9.85,3.36-9.85-2.94-5.92-28-18.92-41-29.17-27.2-23.25-57.15,55.17-45.71,55.17-45.71S86,100.88,95.05,98.91,117.91,96.54,117.91,96.54Z" fill="currentColor"/><path d="M394.09,96.54s-16.56.79-5.91,15,33.89,43.35,47.29,83.55,13.4,51.6,23.25,60.88,9.85,3.36,9.85-2.94,5.92-28,18.92-41,29.17-27.2,23.25-57.15-55.17-45.71-55.17-45.71S426,100.88,417,98.91,394.09,96.54,394.09,96.54Z" fill="currentColor"/></svg>